<svg width="22" height="16" viewBox="0 0 22 16" fill="none" xmlns="http://www.w3.org/2000/svg">
<path d="M13.0625 15.5625H18.5625C19.2421 15.5625 19.8196 15.4092 20.2991 15.1421L13.0625 10.8253V15.5625Z" fill="#2E3192"/>
<path d="M21.8831 12.8847C21.9615 12.5351 22.0014 12.1649 22.0014 11.7809V10.0622H17.1511L21.8817 12.8847" fill="#2E3192"/>
<path d="M0.120231 3.10465C0.0387637 3.47038 -0.0015907 3.84406 -8.12471e-05 4.21875V5.9375H4.86879L0.120231 3.10465Z" fill="#2E3192"/>
<path d="M8.93752 0.4375H3.43752C2.76274 0.4375 2.18902 0.58875 1.71155 0.852063L8.93752 5.16269V0.4375Z" fill="#2E3192"/>
<path d="M1.73352 15.1589C2.20652 15.4147 2.77268 15.5625 3.43749 15.5625H8.93749V10.8614L1.73352 15.1589Z" fill="#2E3192"/>
<path d="M0 10.0625V11.7812C0 12.1769 0.0419375 12.5581 0.124781 12.9167L4.90944 10.0625H0Z" fill="#2E3192"/>
<path d="M20.3208 0.868906C19.8375 0.594594 19.2521 0.4375 18.5625 0.4375H13.0625V5.19878L20.3208 0.868906Z" fill="#2E3192"/>
<path d="M22 5.9375V4.21875C22 3.84269 21.9611 3.48003 21.8858 3.13697L17.1916 5.9375H22Z" fill="#2E3192"/>
<path d="M17.1916 5.9375L21.8859 3.13697C21.6707 2.15247 21.1468 1.33744 20.3208 0.868906L13.0625 5.19878V0.4375H12.375V6.625H22V5.9375H17.1916Z" fill="#E6E7E8"/>
<path d="M0 9.375V10.0625H4.90944L0.124781 12.9167C0.352 13.8981 0.891688 14.7038 1.73353 15.1589L8.9375 10.8614V15.5625H9.625V9.375H0Z" fill="#E6E7E8"/>
<path d="M22 9.375H12.375V15.5625H13.0625V10.8253L20.2991 15.1424C21.1313 14.6791 21.6617 13.8685 21.8818 12.8854L17.1511 10.0625H22V9.375Z" fill="#E6E7E8"/>
<path d="M8.9375 0.4375V5.16269L1.71153 0.852063C0.876219 1.31269 0.342375 2.12188 0.119969 3.10466L4.86888 5.9375H0V6.625H9.625V0.4375H8.9375Z" fill="#E6E7E8"/>
<path d="M12.375 6.625V0.4375H9.625V6.625H0V9.375H9.625V15.5625H12.375V9.375H22V6.625H12.375Z" fill="#BE1E2D"/>
<path d="M7.54116 5.9375L0.648976 1.82316C0.500819 2.04316 0.381882 2.28516 0.283569 2.54297L5.9716 5.9375H7.54013" fill="#BE1E2D"/>
<path d="M21.38 13.4684L15.6005 10H14L20.9826 14.2003C21.1445 13.974 21.278 13.7287 21.38 13.4698" fill="#BE1E2D"/>
<path d="M20.8721 1.25941L13.0518 5.9375L14.6396 5.93853L21.3878 1.89844C21.2372 1.62447 21.0784 1.44778 20.8721 1.25941Z" fill="#BE1E2D"/>
<path d="M0.62323 14.1445C0.77786 14.38 0.963946 14.5933 1.17632 14.7784L8.95917 10.0625H7.39064L0.62323 14.1445Z" fill="#BE1E2D"/>
</svg>
