<svg width="30" height="29" viewBox="0 0 30 29" fill="none" xmlns="http://www.w3.org/2000/svg">
<circle cx="6.5" cy="6" r="6" transform="rotate(-90 6.5 6)" fill="#020D46"/>
<path d="M15.5 5.86224C15.5 4.81296 16.3109 3.94208 17.3575 3.86732L27.3575 3.15304C28.5152 3.07034 29.5 3.98727 29.5 5.14795V6.85205C29.5 8.01273 28.5152 8.92966 27.3575 8.84696L17.3575 8.13268C16.3109 8.05792 15.5 7.18704 15.5 6.13776V5.86224Z" fill="#000080" fill-opacity="0.5"/>
<circle r="6" transform="matrix(0 -1 -1 0 23.5 23)" fill="#020D46"/>
<path d="M14.5 22.8622C14.5 21.813 13.6891 20.9421 12.6425 20.8673L2.64249 20.153C1.48476 20.0703 0.5 20.9873 0.5 22.148L0.5 23.852C0.5 25.0127 1.48476 25.9297 2.64249 25.847L12.6425 25.1327C13.6891 25.0579 14.5 24.187 14.5 23.1378V22.8622Z" fill="#000080" fill-opacity="0.5"/>
</svg>
