<svg width="24" height="24" viewBox="0 0 24 24" fill="none" xmlns="http://www.w3.org/2000/svg">
<circle cx="12" cy="12" r="12" fill="#020D46"/>
<path d="M11.8555 12.0625L11.8965 13.0127C11.8965 13.5732 11.7552 14.0199 11.4727 14.3525H15.9365V16H8.69727V14.3525H9.32617C9.6543 14.2705 9.81836 13.8626 9.81836 13.1289L9.78418 12.0625H8.67676V10.4492H9.72949L9.68164 8.89746C9.68164 7.97689 9.96191 7.25 10.5225 6.7168C11.0876 6.18359 11.8418 5.91699 12.7852 5.91699C13.7513 5.91699 14.5101 6.17448 15.0615 6.68945C15.613 7.19987 15.8887 7.89258 15.8887 8.76758H13.9268C13.9268 8.38021 13.8265 8.08398 13.626 7.87891C13.43 7.67383 13.1475 7.57129 12.7783 7.57129C12.4775 7.57129 12.2269 7.68294 12.0264 7.90625C11.8304 8.12956 11.7324 8.45996 11.7324 8.89746L11.7939 10.4492H13.9062V12.0625H11.8555Z" fill="white"/>
</svg>
