<svg width="22" height="16" viewBox="0 0 22 16" fill="none" xmlns="http://www.w3.org/2000/svg">
<path d="M0 13.5C0 14.1483 0.257539 14.7701 0.715961 15.2285C1.17438 15.6869 1.79614 15.9444 2.44444 15.9444H19.5556C20.2039 15.9444 20.8256 15.6869 21.284 15.2285C21.7425 14.7701 22 14.1483 22 13.5V11.0556H0V13.5Z" fill="#138808"/>
<path d="M0 4.94444H22V11.0556H0V4.94444Z" fill="#EEEEEE"/>
<path d="M22 4.94445V2.5C22 1.85169 21.7425 1.22994 21.284 0.771518C20.8256 0.313096 20.2039 0.0555573 19.5556 0.0555573H2.44444C1.79614 0.0555573 1.17438 0.313096 0.715961 0.771518C0.257539 1.22994 0 1.85169 0 2.5L0 4.94445H22Z" fill="#FF9933"/>
<path d="M11 10.4444C12.35 10.4444 13.4444 9.35003 13.4444 8C13.4444 6.64997 12.35 5.55556 11 5.55556C9.64996 5.55556 8.55554 6.64997 8.55554 8C8.55554 9.35003 9.64996 10.4444 11 10.4444Z" fill="#000080"/>
<path d="M11 9.83333C12.0125 9.83333 12.8334 9.01252 12.8334 8C12.8334 6.98747 12.0125 6.16666 11 6.16666C9.9875 6.16666 9.16669 6.98747 9.16669 8C9.16669 9.01252 9.9875 9.83333 11 9.83333Z" fill="#EEEEEE"/>
<path d="M11 6.16666L11.0892 7.55022L11.701 6.30661L11.2549 7.61866L12.2962 6.70322L11.3814 7.74516L12.6934 7.29844L11.4498 7.91077L12.8334 8L11.4498 8.08922L12.6934 8.70094L11.3814 8.25483L12.2962 9.29616L11.2549 8.38133L11.701 9.69338L11.0892 8.44977L11 9.83333L10.9108 8.44977L10.2985 9.69338L10.7452 8.38133L9.70324 9.29616L10.6187 8.25483L9.30663 8.70094L10.5502 8.08922L9.16669 8L10.5502 7.91077L9.30663 7.29844L10.6187 7.74516L9.70324 6.70322L10.7452 7.61866L10.2985 6.30661L10.9108 7.55022L11 6.16666Z" fill="#6666B3"/>
<path d="M11 8.61111C11.3375 8.61111 11.6111 8.33751 11.6111 8C11.6111 7.66249 11.3375 7.38889 11 7.38889C10.6625 7.38889 10.3889 7.66249 10.3889 8C10.3889 8.33751 10.6625 8.61111 11 8.61111Z" fill="#000080"/>
</svg>
