<svg width="25" height="21" viewBox="0 0 25 21" fill="none" xmlns="http://www.w3.org/2000/svg">
<path fill-rule="evenodd" clip-rule="evenodd" d="M0 2.5C0 1.11929 1.11929 0 2.5 0H22.5C23.8807 0 25 1.11929 25 2.5C25 3.88071 23.8807 5 22.5 5H2.5C1.11929 5 0 3.88071 0 2.5ZM7 10.5C7 9.11929 8.11929 8 9.5 8H22.5C23.8807 8 25 9.11929 25 10.5C25 11.8807 23.8807 13 22.5 13H9.5C8.11929 13 7 11.8807 7 10.5ZM17.5 16C16.1193 16 15 17.1193 15 18.5C15 19.8807 16.1193 21 17.5 21H22.5C23.8807 21 25 19.8807 25 18.5C25 17.1193 23.8807 16 22.5 16H17.5Z" fill="#020D46"/>
</svg>
