<svg width="20" height="20" viewBox="0 0 20 20" fill="none" xmlns="http://www.w3.org/2000/svg">
<path d="M7 14C8.763 14 10.37 13.34 11.603 12.261L12.94 15.061C12.94 15.061 13.215 15.285 13.593 15.657C13.98 16.02 14.489 16.511 14.977 17.024L16.335 18.416L16.939 19.062L19.06 16.941L18.414 16.337L17.022 14.979C16.5536 14.5304 16.0978 14.0689 15.655 13.595C15.283 13.217 15.059 12.942 15.059 12.942L12.259 11.605C13.3804 10.333 13.9994 8.69572 14 7C14 3.141 10.859 0 7 0C3.141 0 0 3.141 0 7C0 10.859 3.141 14 7 14Z" fill="#020D46"/>
</svg>
