<svg width="22" height="16" viewBox="0 0 22 16" fill="none" xmlns="http://www.w3.org/2000/svg">
<path d="M3.4375 0.4375C1.15947 0.4375 0 2.13047 0 4.21875V11.7812C0 13.8695 1.15947 15.5625 3.4375 15.5625H6.875V0.4375H3.4375Z" fill="#E6E7E8"/>
<path d="M18.5625 0.4375H6.875V15.5625H18.5625C20.8405 15.5625 22 13.8695 22 11.7812V4.21875C22 2.13047 20.8405 0.4375 18.5625 0.4375Z" fill="#006838"/>
<path d="M15.3 4.40025L16.0783 5.12247L17.113 4.89182L16.6668 5.85638L17.2065 6.77075L16.1501 6.64219L15.4475 7.43935L15.2436 6.39778L14.2674 5.97463L15.1955 5.45694L15.3 4.40025Z" fill="#E6E7E8"/>
<path d="M18.0022 9.14468C16.5237 10.6235 14.1275 10.6235 12.6486 9.14468C11.1698 7.66622 11.1698 5.26959 12.6486 3.79112C12.7507 3.68937 12.8573 3.59622 12.9673 3.50856C12.2091 3.70075 11.5168 4.09409 10.9636 4.64706C9.25652 6.35447 9.25652 9.12268 10.9636 10.8301C12.6717 12.5372 15.4392 12.5372 17.1466 10.8301C17.6996 10.2769 18.0929 9.58459 18.2851 8.82637C18.1966 8.93749 18.1022 9.04375 18.0022 9.14468Z" fill="#E6E7E8"/>
</svg>
