<svg width="24" height="24" viewBox="0 0 24 24" fill="none" xmlns="http://www.w3.org/2000/svg">
<circle cx="12" cy="12" r="12" fill="#020D46"/>
<path d="M13.4004 14.3818C13.4004 14.0081 13.2956 13.7119 13.0859 13.4932C12.8809 13.2699 12.5299 13.0648 12.0332 12.8779C11.5365 12.6911 11.1081 12.5065 10.748 12.3242C10.388 12.1374 10.0781 11.9255 9.81836 11.6885C9.56315 11.4469 9.36263 11.1644 9.2168 10.8408C9.07552 10.5173 9.00488 10.1322 9.00488 9.68555C9.00488 8.91536 9.25098 8.28418 9.74316 7.79199C10.2354 7.2998 10.8893 7.0127 11.7051 6.93066V5.46777H12.7988V6.95117C13.6055 7.0651 14.2367 7.40234 14.6924 7.96289C15.1481 8.51888 15.376 9.24121 15.376 10.1299H13.4004C13.4004 9.58301 13.2865 9.17513 13.0586 8.90625C12.8353 8.63281 12.5345 8.49609 12.1562 8.49609C11.7826 8.49609 11.4932 8.60319 11.2881 8.81738C11.083 9.02702 10.9805 9.31868 10.9805 9.69238C10.9805 10.0387 11.0807 10.3167 11.2812 10.5264C11.4818 10.736 11.8532 10.9502 12.3955 11.1689C12.9424 11.3877 13.3913 11.5951 13.7422 11.791C14.0931 11.9824 14.3893 12.2012 14.6309 12.4473C14.8724 12.6888 15.057 12.9668 15.1846 13.2812C15.3122 13.5911 15.376 13.9535 15.376 14.3682C15.376 15.1429 15.1344 15.7718 14.6514 16.2549C14.1683 16.738 13.5029 17.0228 12.6553 17.1094V18.4697H11.5684V17.1162C10.6341 17.016 9.90951 16.6855 9.39453 16.125C8.88411 15.5599 8.62891 14.8102 8.62891 13.876H10.6045C10.6045 14.4183 10.7321 14.8353 10.9873 15.127C11.2471 15.4141 11.6185 15.5576 12.1016 15.5576C12.5026 15.5576 12.8193 15.4528 13.0518 15.2432C13.2842 15.029 13.4004 14.7419 13.4004 14.3818Z" fill="white"/>
</svg>
