<svg width="16" height="15" viewBox="0 0 20 19" fill="none" xmlns="http://www.w3.org/2000/svg">
<path d="M18.8971 3.85101L16.148 1.10193C16.063 1.01664 15.962 0.949 15.8508 0.902905C15.7396 0.85681 15.6203 0.83317 15.4999 0.833344H4.49992C4.37953 0.83322 4.2603 0.856884 4.14908 0.902975C4.03786 0.949067 3.93685 1.01668 3.85184 1.10193L1.10275 3.85101C1.01719 3.93602 0.949318 4.03715 0.903061 4.14854C0.856803 4.25994 0.833077 4.37939 0.833253 4.50001V16.4167C0.833253 17.4278 1.6555 18.25 2.66659 18.25H17.3333C18.3443 18.25 19.1666 17.4278 19.1666 16.4167V4.50001C19.1669 4.37938 19.1432 4.25989 19.0969 4.14848C19.0507 4.03708 18.9827 3.93596 18.8971 3.85101ZM4.87942 2.66668H15.1204L16.0371 3.58334H3.96275L4.87942 2.66668ZM9.99992 15.5L5.41659 10.9167H8.16659V8.16668H11.8333V10.9167H14.5833L9.99992 15.5Z" fill="#BDBDBD" fill-opacity="0.6"/>
</svg>
