<svg width="28" height="16" viewBox="0 0 28 16" fill="none" xmlns="http://www.w3.org/2000/svg">
<path d="M0 8C0.00171661 8.34032 0.0791826 8.67599 0.226781 8.98266C0.374379 9.28933 0.588406 9.5593 0.853333 9.77299L7.65333 15.3852C8.06271 15.7132 8.55599 15.9195 9.07698 15.9808C9.59796 16.0421 10.1257 15.9558 10.6 15.7318C11.0122 15.5502 11.3634 15.2537 11.6117 14.8778C11.86 14.502 11.9948 14.0626 12 13.6122V2.38776C11.9948 1.93738 11.86 1.49802 11.6117 1.12216C11.3634 0.746309 11.0122 0.449844 10.6 0.268173C10.1257 0.0441742 9.59796 -0.0421047 9.07698 0.0191755C8.55599 0.0804558 8.06271 0.286826 7.65333 0.614771L0.853333 6.22701C0.588406 6.4407 0.374379 6.71067 0.226781 7.01734C0.0791826 7.32401 0.00171661 7.65968 0 8Z" fill="#020D46"/>
<path d="M14 8.36224C14 7.31296 14.8109 6.44208 15.8575 6.36732L25.8575 5.65304C27.0152 5.57034 28 6.48727 28 7.64795V9.35205C28 10.5127 27.0152 11.4297 25.8575 11.347L15.8575 10.6327C14.8109 10.5579 14 9.68704 14 8.63776V8.36224Z" fill="#000080" fill-opacity="0.5"/>
</svg>
