<svg width="20" height="20" viewBox="0 0 20 20" fill="none" xmlns="http://www.w3.org/2000/svg">
<circle cx="10" cy="10" r="9.5" fill="#020D46" stroke="#BFBFBF"/>
<path fill-rule="evenodd" clip-rule="evenodd" d="M10.0785 5.83333C10.1545 5.83333 10.2273 5.86351 10.281 5.91723C10.3348 5.97095 10.3649 6.04381 10.3649 6.11979V12.8762L12.1673 11.0732C12.2211 11.0194 12.2941 10.9892 12.3702 10.9892C12.4462 10.9892 12.5192 11.0194 12.573 11.0732C12.6268 11.127 12.657 11.2 12.657 11.276C12.657 11.3521 12.6268 11.4251 12.573 11.4788L10.2813 13.7705C10.2547 13.7972 10.2231 13.8184 10.1883 13.8328C10.1535 13.8472 10.1162 13.8547 10.0785 13.8547C10.0408 13.8547 10.0035 13.8472 9.9687 13.8328C9.93389 13.8184 9.90228 13.7972 9.87567 13.7705L7.58401 11.4788C7.53022 11.4251 7.5 11.3521 7.5 11.276C7.5 11.2 7.53022 11.127 7.58401 11.0732C7.6378 11.0194 7.71075 10.9892 7.78682 10.9892C7.86289 10.9892 7.93584 11.0194 7.98963 11.0732L9.79203 12.8762V6.11979C9.79203 6.04381 9.82221 5.97095 9.87593 5.91723C9.92965 5.86351 10.0025 5.83333 10.0785 5.83333Z" fill="white"/>
</svg>
