<svg width="22" height="22" viewBox="0 0 22 22" fill="none" xmlns="http://www.w3.org/2000/svg">
<path fill-rule="evenodd" clip-rule="evenodd" d="M2.40625 2.0625C2.31508 2.0625 2.22765 2.09872 2.16318 2.16318C2.09872 2.22765 2.0625 2.31508 2.0625 2.40625V15.4688C2.0625 15.6585 2.2165 15.8125 2.40625 15.8125H5.15625C5.42975 15.8125 5.69206 15.9212 5.88545 16.1145C6.07885 16.3079 6.1875 16.5702 6.1875 16.8438V19.855L9.9275 16.115C10.1207 15.9216 10.3828 15.8127 10.6562 15.8125H19.5938C19.6849 15.8125 19.7724 15.7763 19.8368 15.7118C19.9013 15.6474 19.9375 15.5599 19.9375 15.4688V2.40625C19.9375 2.31508 19.9013 2.22765 19.8368 2.16318C19.7724 2.09872 19.6849 2.0625 19.5938 2.0625H2.40625ZM0 2.40625C0 1.078 1.078 0 2.40625 0H19.5938C20.922 0 22 1.078 22 2.40625V15.4688C22 16.1069 21.7465 16.719 21.2952 17.1702C20.844 17.6215 20.2319 17.875 19.5938 17.875H11.0825L7.54462 21.4129C7.26445 21.6929 6.90755 21.8836 6.51902 21.9608C6.1305 22.0381 5.72779 21.9984 5.36181 21.8468C4.99583 21.6953 4.683 21.4386 4.46285 21.1093C4.24271 20.78 4.12514 20.3928 4.125 19.9966V17.875H2.40625C1.76807 17.875 1.15603 17.6215 0.704774 17.1702C0.253515 16.719 0 16.1069 0 15.4688L0 2.40625ZM12.375 12.375C12.375 12.7397 12.2301 13.0894 11.9723 13.3473C11.7144 13.6051 11.3647 13.75 11 13.75C10.6353 13.75 10.2856 13.6051 10.0277 13.3473C9.76987 13.0894 9.625 12.7397 9.625 12.375C9.625 12.0103 9.76987 11.6606 10.0277 11.4027C10.2856 11.1449 10.6353 11 11 11C11.3647 11 11.7144 11.1449 11.9723 11.4027C12.2301 11.6606 12.375 12.0103 12.375 12.375ZM12.0312 5.15625C12.0312 4.88275 11.9226 4.62044 11.7292 4.42705C11.5358 4.23365 11.2735 4.125 11 4.125C10.7265 4.125 10.4642 4.23365 10.2708 4.42705C10.0774 4.62044 9.96875 4.88275 9.96875 5.15625V8.59375C9.96875 8.86726 10.0774 9.12956 10.2708 9.32296C10.4642 9.51635 10.7265 9.625 11 9.625C11.2735 9.625 11.5358 9.51635 11.7292 9.32296C11.9226 9.12956 12.0312 8.86726 12.0312 8.59375V5.15625Z" fill="#BDBDBD" fill-opacity="0.5"/>
</svg>
