<svg width="19" height="20" viewBox="0 0 19 20" fill="none" xmlns="http://www.w3.org/2000/svg">
<path d="M17.9824 12.071L16.5752 10.8679C16.6418 10.4597 16.6762 10.0429 16.6762 9.62607C16.6762 9.20928 16.6418 8.79248 16.5752 8.38428L17.9824 7.18115C18.0886 7.09029 18.1645 6.96926 18.2002 6.83418C18.2359 6.69909 18.2296 6.55634 18.1822 6.4249L18.1629 6.36904C17.7755 5.28629 17.1954 4.28256 16.4506 3.40635L16.4119 3.36123C16.3216 3.25499 16.2011 3.17863 16.0665 3.14219C15.9319 3.10576 15.7894 3.11096 15.6578 3.15713L13.9111 3.77803C13.2666 3.24951 12.5469 2.83271 11.7691 2.54053L11.4318 0.714355C11.4064 0.576946 11.3397 0.450533 11.2407 0.351909C11.1417 0.253286 11.015 0.187122 10.8775 0.162207L10.8195 0.151465C9.7002 -0.0504883 8.52285 -0.0504883 7.40352 0.151465L7.34551 0.162207C7.208 0.187122 7.08133 0.253286 6.98233 0.351909C6.88332 0.450533 6.81666 0.576946 6.79121 0.714355L6.45176 2.54912C5.68023 2.84137 4.96175 3.25794 4.32481 3.78232L2.56524 3.15713C2.43368 3.1106 2.29108 3.1052 2.15638 3.14166C2.02168 3.17812 1.90127 3.2547 1.81114 3.36123L1.77247 3.40635C1.02856 4.28318 0.448546 5.28674 0.0601606 6.36904L0.0408246 6.4249C-0.0558551 6.69346 0.0236372 6.99424 0.240629 7.18115L1.66504 8.39717C1.59844 8.80107 1.56622 9.21357 1.56622 9.62392C1.56622 10.0364 1.59844 10.4489 1.66504 10.8507L0.240629 12.0667C0.134487 12.1576 0.0585201 12.2786 0.0228293 12.4137C-0.0128615 12.5488 -0.00658496 12.6915 0.0408246 12.8229L0.0601606 12.8788C0.449028 13.9616 1.02481 14.9606 1.77247 15.8415L1.81114 15.8866C1.90149 15.9929 2.02191 16.0692 2.15652 16.1057C2.29114 16.1421 2.43364 16.1369 2.56524 16.0907L4.32481 15.4655C4.96504 15.9919 5.68047 16.4087 6.45176 16.6987L6.79121 18.5335C6.81666 18.6709 6.88332 18.7973 6.98233 18.8959C7.08133 18.9946 7.208 19.0607 7.34551 19.0856L7.40352 19.0964C8.53314 19.2994 9.68991 19.2994 10.8195 19.0964L10.8775 19.0856C11.015 19.0607 11.1417 18.9946 11.2407 18.8959C11.3397 18.7973 11.4064 18.6709 11.4318 18.5335L11.7691 16.7073C12.5466 16.4159 13.2704 15.9977 13.9111 15.4698L15.6578 16.0907C15.7894 16.1373 15.932 16.1426 16.0667 16.1062C16.2014 16.0697 16.3218 15.9932 16.4119 15.8866L16.4506 15.8415C17.1982 14.9585 17.774 13.9616 18.1629 12.8788L18.1822 12.8229C18.2789 12.5587 18.1994 12.2579 17.9824 12.071ZM15.0498 8.63779C15.1035 8.96221 15.1314 9.29521 15.1314 9.62822C15.1314 9.96123 15.1035 10.2942 15.0498 10.6187L14.908 11.4802L16.5129 12.853C16.2696 13.4135 15.9625 13.9441 15.5977 14.4343L13.6039 13.7274L12.9293 14.2817C12.4158 14.7028 11.8443 15.0337 11.2256 15.2657L10.407 15.5729L10.0225 17.6569C9.41568 17.7257 8.80307 17.7257 8.19629 17.6569L7.81172 15.5687L6.99961 15.2571C6.38731 15.0251 5.81797 14.6942 5.30879 14.2753L4.63418 13.7188L2.62754 14.4321C2.26231 13.9401 1.95723 13.4095 1.71231 12.8509L3.33438 11.4651L3.19473 10.6058C3.14317 10.2856 3.11524 9.95478 3.11524 9.62822C3.11524 9.29951 3.14102 8.9708 3.19473 8.65068L3.33438 7.79131L1.71231 6.40557C1.95508 5.84482 2.26231 5.31631 2.62754 4.82432L4.63418 5.5376L5.30879 4.98115C5.81797 4.56221 6.38731 4.23135 6.99961 3.99932L7.81387 3.69209L8.19844 1.60381C8.80215 1.53506 9.41875 1.53506 10.0246 1.60381L10.4092 3.68779L11.2277 3.99502C11.8443 4.22705 12.418 4.55791 12.9314 4.979L13.6061 5.5333L15.5998 4.82646C15.965 5.31846 16.2701 5.84912 16.515 6.40771L14.9102 7.78057L15.0498 8.63779ZM9.11368 5.63213C7.02539 5.63213 5.33243 7.3251 5.33243 9.41338C5.33243 11.5017 7.02539 13.1946 9.11368 13.1946C11.202 13.1946 12.8949 11.5017 12.8949 9.41338C12.8949 7.3251 11.202 5.63213 9.11368 5.63213ZM10.8152 11.1149C10.5921 11.3388 10.3268 11.5162 10.0348 11.6372C9.7428 11.7581 9.42975 11.8201 9.11368 11.8196C8.47129 11.8196 7.86758 11.5683 7.41211 11.1149C7.1883 10.8918 7.01081 10.6265 6.88988 10.3345C6.76894 10.0425 6.70693 9.72945 6.70743 9.41338C6.70743 8.771 6.95879 8.16728 7.41211 7.71182C7.86758 7.25635 8.47129 7.00713 9.11368 7.00713C9.75606 7.00713 10.3598 7.25635 10.8152 7.71182C11.0391 7.93499 11.2165 8.20022 11.3375 8.49224C11.4584 8.78426 11.5204 9.09731 11.5199 9.41338C11.5199 10.0558 11.2686 10.6595 10.8152 11.1149Z" fill="#BDBDBD" fill-opacity="0.6"/>
</svg>
