<svg width="19" height="18" viewBox="0 0 19 18" fill="none" xmlns="http://www.w3.org/2000/svg">
<path d="M18.0638 3.01767L15.3148 0.268584C15.2298 0.183295 15.1288 0.115656 15.0175 0.0695616C14.9063 0.0234668 14.7871 -0.000173662 14.6667 9.60368e-07H3.66667C3.54628 -0.000123406 3.42705 0.02354 3.31583 0.069632C3.20461 0.115724 3.10359 0.183336 3.01858 0.268584L0.269501 3.01767C0.183937 3.10268 0.116066 3.20381 0.0698086 3.3152C0.0235515 3.42659 -0.00017458 3.54605 9.67059e-07 3.66667V15.5833C9.67059e-07 16.5944 0.822251 17.4167 1.83333 17.4167H16.5C17.5111 17.4167 18.3333 16.5944 18.3333 15.5833V3.66667C18.3336 3.54604 18.3099 3.42655 18.2637 3.31514C18.2174 3.20373 18.1495 3.10262 18.0638 3.01767ZM4.04617 1.83333H14.2872L15.2038 2.75H3.1295L4.04617 1.83333ZM9.16667 14.6667L4.58333 10.0833H7.33333V7.33333H11V10.0833H13.75L9.16667 14.6667Z" fill="#020D46"/>
</svg>
