<svg width="15" height="25" viewBox="0 0 15 25" fill="none" xmlns="http://www.w3.org/2000/svg">
<path d="M8.07466 10.9722C4.72986 10.1528 3.65422 9.30556 3.65422 7.98611C3.65422 6.47222 5.14244 5.41667 7.63261 5.41667C10.2554 5.41667 11.2279 6.59722 11.3163 8.33333H14.5727C14.4695 5.94444 12.9224 3.75 9.84283 3.04167V0H5.4224V3C2.56385 3.58333 0.265226 5.33333 0.265226 8.01389C0.265226 11.2222 3.07957 12.8194 7.19057 13.75C10.8743 14.5833 11.611 15.8056 11.611 17.0972C11.611 18.0556 10.889 19.5833 7.63261 19.5833C4.59725 19.5833 3.40373 18.3056 3.24165 16.6667H0C0.176817 19.7083 2.59332 21.4167 5.4224 21.9861V25H9.84283V22.0139C12.7161 21.5 15 19.9306 15 17.0833C15 13.1389 11.4194 11.7917 8.07466 10.9722Z" fill="#AEAEAE" fill-opacity="0.54"/>
</svg>
